<?xml version="1.0" standalone="no"?>
<!DOCTYPE svg PUBLIC "-//W3C//DTD SVG 20010904//EN"
 "http://www.w3.org/TR/2001/REC-SVG-20010904/DTD/svg10.dtd">
<svg version="1.0" xmlns="http://www.w3.org/2000/svg"
 width="1024.000000pt" height="1024.000000pt" viewBox="0 0 1024.000000 1024.000000"
 preserveAspectRatio="xMidYMid meet">

<g transform="translate(0.000000,1024.000000) scale(0.100000,-0.100000)"
fill="#000000" stroke="none">
<path d="M0 5120 l0 -5120 5120 0 5120 0 0 5120 0 5120 -5120 0 -5120 0 0
-5120z m5146 4171 c5 -5 63 -37 129 -72 66 -35 158 -85 205 -112 47 -27 155
-88 240 -135 85 -47 229 -126 320 -177 91 -51 269 -150 395 -220 127 -71 322
-183 435 -250 369 -220 747 -429 815 -452 l30 -10 2 -1285 2 -1286 -27 -7
c-39 -9 -503 -265 -847 -467 -166 -98 -292 -168 -300 -168 -4 0 -68 -34 -143
-77 -149 -83 -317 -174 -542 -292 -148 -79 -489 -263 -570 -309 -25 -15 -74
-40 -110 -57 l-65 -31 -170 89 c-93 49 -285 152 -425 230 -261 143 -415 227
-575 312 -49 26 -130 71 -180 100 -49 29 -191 107 -315 175 -124 68 -317 176
-430 240 -251 143 -446 245 -482 254 l-28 6 -1 333 c-4 1284 2 2212 14 2224
12 12 97 60 237 136 41 22 120 65 175 97 55 32 190 108 300 170 110 62 241
136 290 165 162 94 388 221 525 295 159 86 368 203 460 255 36 21 90 51 120
68 30 16 93 51 140 77 192 107 346 188 361 189 3 1 9 -3 15 -8z m-734 -5691
c132 -40 275 -165 319 -277 20 -50 23 -77 24 -188 0 -126 -1 -132 -33 -199
-41 -87 -152 -201 -234 -239 -124 -59 -236 -68 -368 -31 -168 48 -302 183
-346 349 -19 69 -17 200 2 266 30 101 139 230 238 281 109 57 283 74 398 38z
m1133 -6 c32 -8 87 -30 121 -49 59 -33 97 -65 77 -65 -6 0 -29 -27 -52 -60
-23 -32 -46 -62 -50 -65 -5 -3 -40 10 -77 27 -61 29 -79 33 -154 33 -105 0
-159 -23 -225 -97 -163 -182 -32 -483 210 -481 67 1 167 32 200 63 l21 20 62
-60 c34 -33 69 -60 79 -60 25 0 -70 -65 -164 -112 -108 -54 -189 -61 -310 -28
-235 63 -373 242 -373 480 0 174 86 320 240 407 125 70 244 84 395 47z m870
15 c126 -23 252 -105 323 -211 55 -83 73 -143 73 -248 -1 -100 -21 -184 -61
-255 -40 -70 -147 -170 -214 -201 -60 -27 -171 -54 -227 -54 -54 0 -184 36
-241 67 -73 40 -168 137 -201 205 -95 200 -69 388 77 545 121 130 292 185 471
152z m1866 -9 l329 0 0 -95 0 -96 -247 2 c-175 1 -248 -2 -247 -10 1 -6 2 -49
3 -96 l1 -86 215 6 215 6 0 -90 0 -90 -46 -7 c-26 -4 -123 -4 -215 -2 l-169 5
0 -103 0 -104 250 0 250 0 0 -64 c0 -35 3 -77 6 -94 l6 -31 -356 2 -356 2 0
479 c0 432 2 478 16 472 9 -3 164 -6 345 -6z m-6030 -16 c88 -26 150 -63 215
-128 107 -107 154 -239 134 -376 -29 -203 -142 -341 -325 -400 -62 -20 -97
-23 -307 -27 l-238 -5 0 476 0 476 233 0 c185 0 245 -3 288 -16z m709 -266 c0
-300 5 -338 47 -400 32 -47 111 -88 170 -88 77 0 177 66 202 133 6 16 11 97
11 181 0 84 3 221 7 304 l6 152 99 0 100 0 -4 -337 c-4 -377 -2 -366 -78 -467
-119 -158 -360 -203 -554 -104 -65 33 -141 112 -172 181 l-29 62 -3 333 -3
332 100 0 101 0 0 -282z m4608 248 c114 -53 183 -163 185 -296 1 -104 -49
-192 -149 -261 -39 -27 -42 -32 -34 -55 12 -31 78 -129 147 -218 29 -37 53
-73 53 -80 0 -8 -32 -10 -110 -8 -60 2 -110 7 -110 11 0 5 -24 44 -53 87 -29
44 -68 105 -86 137 l-32 57 -104 0 -104 0 -3 -142 -3 -142 -91 -3 -91 -4 -6
338 c-4 186 -4 400 0 476 l6 138 261 -3 261 -3 63 -29z m-4703 -1250 c25 -15
58 -46 73 -68 23 -35 27 -52 27 -107 -1 -147 -94 -221 -277 -221 l-78 0 0 199
c0 110 -3 207 -7 217 -6 16 2 17 105 12 97 -5 117 -9 157 -32z m535 -11 l0
-41 -105 4 -105 4 0 -51 0 -51 100 0 c92 0 100 -2 100 -19 0 -48 -7 -51 -106
-51 l-94 0 0 -52 0 -53 105 3 105 4 0 -40 0 -39 -145 0 -145 0 0 211 0 211
145 0 145 1 0 -41z m199 3 c22 -72 95 -258 102 -258 4 0 16 27 28 60 11 34 37
101 58 150 l38 90 37 0 c21 0 38 -2 38 -5 0 -11 -100 -256 -138 -337 -60 -128
-80 -120 -147 56 -13 34 -44 108 -69 165 -50 113 -49 121 10 121 28 0 32 -4
43 -42z m719 -6 l3 -42 -115 0 -116 0 0 -44 0 -43 46 -7 c26 -3 71 -6 100 -6
53 0 54 -1 54 -29 0 -36 -16 -41 -120 -34 l-80 6 0 -52 0 -51 115 0 115 0 0
-40 0 -40 -152 3 c-151 2 -153 2 -152 25 0 12 1 105 2 207 l2 184 133 4 c72 1
139 3 147 2 10 0 16 -13 18 -43z m214 -59 c2 -60 2 -138 0 -175 l-2 -68 95 0
95 0 0 -40 0 -40 -129 0 c-72 0 -132 3 -134 8 -2 4 -2 100 1 215 l4 207 34 0
34 0 2 -107z m615 71 c48 -38 93 -124 93 -178 0 -54 -38 -134 -83 -173 -62
-55 -179 -58 -256 -8 -114 76 -130 240 -33 333 49 45 100 63 174 60 57 -3 73
-8 105 -34z m720 3 c16 -18 51 -68 78 -110 l48 -77 54 93 c29 50 53 97 53 104
0 11 97 30 106 20 3 -2 2 -97 -2 -211 -6 -186 -9 -206 -25 -211 -10 -4 -27 -1
-38 5 -18 9 -21 22 -23 132 l-3 122 -59 -80 c-33 -43 -64 -82 -70 -86 -13 -9
-27 9 -68 84 -58 109 -63 105 -60 -43 l4 -129 -32 0 c-17 0 -33 6 -35 13 -2 6
-5 101 -7 210 l-3 197 26 0 c18 0 37 -11 56 -33z m803 19 c0 -7 -3 -28 -6 -46
l-7 -32 -103 7 -104 7 0 -53 0 -54 77 6 c43 3 84 3 91 1 6 -2 12 -19 12 -38
l0 -34 -89 0 -88 0 -7 -31 c-14 -72 -18 -69 110 -69 l115 0 -3 -37 -3 -38
-147 0 -147 0 -3 207 -3 208 140 3 c77 1 146 4 153 5 6 1 12 -4 12 -12z m266
-68 c38 -45 90 -105 116 -133 l48 -50 0 133 0 132 35 0 35 0 0 -215 0 -215
-28 0 c-28 0 -58 33 -202 218 -19 25 -39 47 -45 49 -6 2 -10 -44 -10 -124 l0
-128 -37 -3 -38 -3 0 210 0 211 28 0 c24 0 41 -15 98 -82z m694 35 l0 -43 -60
0 -60 0 0 -157 c0 -87 -4 -164 -9 -171 -5 -8 -21 -12 -37 -10 l-29 3 0 168 0
167 -61 0 -62 0 -6 35 c-4 20 -5 39 -2 43 2 4 77 7 165 7 l161 0 0 -42z
m-2046 23 c37 -15 80 -67 89 -107 8 -33 -28 -105 -66 -133 -18 -14 -48 -21
-92 -24 l-65 -4 0 -64 c0 -60 -1 -64 -26 -70 -14 -4 -29 -3 -34 2 -5 5 -10
100 -12 212 l-3 202 88 0 c52 0 101 -6 121 -14z m2657 -106 l349 0 0 -35 0
-35 -395 0 -395 0 0 41 0 42 46 -7 c26 -3 204 -6 395 -6z m-5823 -32 l-3 -33
-342 -3 -343 -2 0 35 0 35 346 0 345 0 -3 -32z"/>
<path d="M5090 9141 c-50 -25 -185 -101 -415 -233 -198 -114 -417 -236 -630
-351 -60 -33 -121 -68 -135 -77 -14 -10 -104 -59 -200 -110 -156 -83 -317
-174 -535 -305 -130 -78 -380 -212 -445 -240 -36 -15 -75 -39 -87 -52 l-23
-24 0 -1173 c0 -967 2 -1176 13 -1185 8 -6 103 -60 213 -120 109 -60 233 -128
274 -151 41 -24 113 -64 160 -90 129 -72 200 -113 250 -143 177 -108 257 -153
705 -392 204 -109 431 -232 505 -275 209 -119 360 -200 373 -200 12 0 274 138
447 235 126 71 317 173 570 305 239 124 331 175 500 275 149 89 484 280 620
355 159 86 317 181 340 203 20 17 20 39 20 1180 0 639 -3 1171 -6 1183 -4 14
-30 33 -77 55 -69 33 -440 243 -677 384 -63 37 -155 91 -205 120 -49 29 -130
76 -180 105 -49 29 -151 85 -225 125 -74 39 -217 117 -318 173 -100 56 -184
102 -186 102 -2 0 -72 39 -157 86 -85 48 -183 103 -219 122 -36 19 -93 53
-128 74 -90 56 -102 59 -142 39z m113 -105 c40 -24 97 -56 127 -71 47 -24 475
-263 670 -375 36 -20 101 -58 145 -82 240 -136 394 -224 425 -243 19 -12 82
-48 140 -80 58 -32 148 -84 200 -115 52 -31 151 -87 220 -125 181 -99 389
-228 396 -245 8 -19 17 -1057 9 -1087 -5 -20 -12 -23 -49 -23 -37 0 -45 4 -50
23 -3 12 -8 189 -11 392 -3 204 -8 426 -11 494 -6 115 -8 126 -31 147 -25 23
-306 195 -383 234 -25 13 -88 50 -140 83 -52 34 -120 75 -150 92 -30 18 -154
89 -275 160 -121 71 -296 171 -390 223 -171 95 -205 113 -350 192 -44 24 -138
77 -210 118 -185 107 -323 172 -361 172 -38 0 -193 -69 -297 -133 -40 -24
-119 -70 -177 -102 -58 -32 -175 -99 -260 -148 -188 -109 -279 -161 -430 -242
-184 -100 -226 -124 -725 -420 -104 -62 -229 -134 -278 -161 -48 -27 -98 -59
-110 -70 l-24 -22 -8 -378 c-4 -209 -10 -435 -14 -503 l-6 -124 -45 -1 -45 -1
-3 531 -2 531 22 33 c13 18 50 48 83 68 240 138 683 385 875 487 74 40 204
112 287 161 84 49 201 116 260 150 360 204 501 284 603 345 172 101 273 157
288 158 7 1 46 -19 85 -43z m-35 -794 c-3 -627 0 -595 -64 -608 l-31 -6 5 584
c3 347 8 588 14 595 11 13 59 22 71 13 4 -4 6 -264 5 -578z m-166 198 c-4 -30
-5 -30 -66 -30 -65 0 -257 -29 -371 -56 -38 -9 -140 -48 -225 -86 -85 -39
-200 -88 -255 -110 -55 -22 -122 -54 -150 -72 -68 -45 -131 -76 -139 -69 -3 4
-6 1 -6 -6 0 -6 -8 -11 -17 -9 -10 2 -17 -1 -17 -7 1 -5 -25 -27 -58 -48 -41
-26 -58 -33 -54 -21 5 13 2 15 -14 11 -67 -17 42 64 183 138 45 23 136 71 202
105 140 73 398 190 470 213 147 47 300 73 451 76 l71 1 -5 -30z m556 16 c14
-9 192 -50 286 -66 37 -7 83 -25 118 -46 31 -19 75 -41 97 -49 22 -7 82 -38
133 -68 51 -30 149 -84 218 -119 150 -78 209 -113 326 -195 100 -68 245 -208
311 -297 74 -101 168 -291 217 -441 60 -186 66 -215 76 -390 4 -82 11 -158 15
-169 5 -10 3 -62 -3 -115 -7 -53 -17 -143 -23 -201 -22 -217 -157 -588 -253
-699 -17 -20 -47 -56 -65 -81 -89 -115 -182 -208 -243 -240 -35 -19 -99 -57
-143 -86 -83 -54 -223 -122 -176 -85 18 13 20 20 10 23 -9 3 2 13 28 26 67 35
271 193 358 278 194 190 329 437 389 709 33 150 49 303 41 391 -5 54 -4 78 5
89 18 22 6 225 -19 338 -56 246 -174 499 -314 670 -12 15 -29 36 -37 46 -8 10
-33 37 -55 61 -26 28 -32 39 -18 31 12 -6 29 -21 37 -33 14 -19 16 -20 16 -5
0 10 -14 30 -30 44 -17 13 -28 29 -24 34 6 11 2 11 -20 3 -9 -3 -13 -11 -9
-17 12 -20 -24 1 -143 86 -202 143 -480 297 -749 414 -138 59 -421 113 -601
113 -50 0 -51 0 -46 30 l4 30 137 -3 c75 -2 143 -7 149 -11z m-558 -228 l0
-33 -103 -2 c-123 -2 -285 -33 -381 -73 -72 -31 -88 -31 -70 -2 38 61 300 139
472 141 l82 1 0 -32z m556 -2 c133 -33 229 -72 254 -104 34 -42 9 -49 -62 -17
-97 43 -218 73 -354 86 l-124 12 0 30 0 30 93 -6 c50 -4 138 -18 193 -31z
m458 -106 c61 -54 54 -147 -16 -190 -53 -32 -94 -27 -139 19 -45 45 -51 87
-20 135 47 70 118 85 175 36z m-1635 -6 c17 -14 36 -43 42 -64 10 -32 9 -44
-7 -76 -11 -21 -34 -47 -52 -58 -29 -16 -39 -17 -71 -8 -41 13 -88 57 -92 87
-16 112 99 188 180 119z m1971 -181 c267 -140 510 -329 510 -396 0 -18 -8 -13
-52 29 -138 132 -427 313 -630 393 -47 19 -58 28 -58 47 l0 23 68 -23 c37 -13
110 -46 162 -73z m-2192 65 c2 -11 -23 -26 -90 -53 -88 -35 -176 -78 -312
-155 -32 -18 -102 -68 -155 -111 -104 -84 -133 -88 -55 -7 104 106 342 254
514 319 80 30 93 31 98 7z m673 -17 c47 -48 39 -105 -23 -145 -32 -21 -55 -12
-87 32 -36 51 -37 80 -5 113 37 38 76 39 115 0z m677 3 c51 -35 45 -112 -12
-149 -35 -23 -67 -15 -93 24 -31 45 -29 77 6 112 33 32 65 37 99 13z m-1918
-65 c0 -5 -9 -17 -19 -26 -11 -9 -18 -20 -15 -24 2 -4 -25 -30 -61 -59 -78
-62 -202 -193 -248 -264 -19 -28 -73 -123 -120 -211 -88 -166 -88 -166 -149
-440 -18 -86 -22 -129 -21 -300 1 -139 6 -230 18 -300 40 -232 112 -451 180
-539 43 -57 117 -196 104 -196 -6 0 -8 -9 -4 -21 11 -33 -8 -20 -66 46 -64 73
-142 231 -199 403 -46 137 -64 219 -80 372 -6 58 -15 117 -21 132 -11 28 1
249 22 398 22 159 74 329 140 462 93 186 175 302 279 393 25 22 47 42 50 45 3
3 32 28 65 56 97 81 145 106 145 73z m918 -115 c45 -8 122 -28 170 -45 91 -32
331 -152 344 -172 3 -6 -2 -27 -12 -46 -36 -68 -34 -67 -87 -29 -86 63 -254
139 -383 174 -50 14 -104 18 -240 18 -203 0 -273 -13 -417 -75 -353 -150 -598
-440 -673 -794 -69 -330 -6 -649 182 -921 93 -136 206 -223 443 -342 138 -69
288 -102 460 -102 179 0 425 65 563 149 123 74 257 184 292 239 l15 24 41 -39
41 -39 -71 -70 c-165 -162 -294 -244 -490 -309 -152 -51 -232 -65 -372 -65
-126 0 -261 23 -399 67 -153 49 -408 201 -517 308 -102 100 -208 280 -258 438
-10 34 -29 114 -41 177 -19 100 -21 137 -16 285 8 230 29 319 118 500 185 378
567 644 989 688 60 7 231 -4 318 -19z m1737 -18 c50 -16 135 -49 190 -75 377
-179 597 -447 701 -853 25 -98 26 -112 21 -293 -6 -233 -26 -331 -97 -490 -60
-133 -107 -206 -198 -311 -128 -149 -314 -264 -552 -343 -163 -55 -228 -65
-384 -58 -194 8 -376 63 -581 178 -109 61 -105 52 -56 102 l44 45 82 -54 c165
-108 329 -154 542 -154 190 0 334 34 503 119 110 55 183 105 263 180 82 78
123 133 189 253 103 190 131 309 132 558 0 155 -2 172 -32 284 -108 400 -350
650 -767 792 -99 34 -123 38 -237 42 -219 7 -368 -26 -577 -131 -104 -52 -141
-77 -227 -155 l-104 -93 -30 21 c-37 26 -37 30 -4 61 14 13 41 47 59 74 18 28
48 64 66 81 69 63 252 159 379 198 162 50 202 56 400 52 168 -3 193 -5 275
-30z m-343 -276 c1 -44 2 -92 2 -107 1 -27 -2 -28 -59 -35 -74 -10 -109 -21
-213 -71 -230 -109 -408 -305 -517 -567 -64 -156 -140 -315 -178 -374 -30 -47
-31 -48 -40 -25 -5 13 -10 96 -11 184 -1 155 0 163 32 263 102 319 297 553
582 697 101 51 291 107 388 114 8 1 13 -22 14 -79z m-1672 -34 l0 -104 -52 -7
c-346 -43 -634 -351 -660 -705 l-3 -35 -94 -3 c-52 -1 -98 1 -102 5 -13 13 17
200 45 281 29 84 73 174 124 252 56 85 207 228 301 284 119 71 303 133 404
135 l37 1 0 -104z m338 68 c119 -39 247 -104 365 -183 59 -39 107 -75 107 -79
0 -5 -15 -26 -33 -48 -19 -21 -47 -65 -64 -96 l-30 -57 -79 70 c-43 39 -108
88 -144 110 -67 41 -218 93 -302 104 l-48 6 0 106 0 106 75 -6 c42 -4 111 -18
153 -33z m1652 -4 c108 -36 309 -136 324 -162 9 -14 0 -27 -46 -70 -30 -29
-58 -60 -60 -68 -4 -12 -18 -8 -74 22 -97 51 -221 96 -293 104 l-61 7 0 105 0
105 58 -5 c31 -3 100 -20 152 -38z m438 -274 c79 -85 115 -138 168 -251 42
-89 73 -201 89 -322 l7 -53 -100 0 -100 0 -7 63 c-9 77 -48 203 -86 279 -16
32 -61 92 -99 135 -39 42 -70 79 -70 82 0 4 16 15 36 26 19 10 47 38 61 62 14
24 28 43 33 43 4 0 35 -29 68 -64z m-2273 -281 c158 -41 262 -152 296 -314 14
-70 -2 -187 -37 -258 -76 -158 -316 -261 -463 -201 -14 6 -30 12 -36 14 -35 8
-65 25 -60 34 3 5 0 7 -8 5 -22 -9 -111 69 -139 122 -57 106 -70 199 -42 306
30 118 86 194 181 248 105 60 195 73 308 44z m1715 -16 c85 -29 167 -106 213
-198 30 -61 32 -72 32 -171 0 -98 -2 -109 -33 -172 -39 -81 -121 -159 -210
-201 -57 -27 -69 -29 -155 -25 -84 3 -101 7 -168 40 -130 64 -196 150 -221
287 -28 151 53 334 180 408 117 69 228 78 362 32z m-738 -182 c37 -295 -102
-633 -365 -883 -124 -118 -226 -182 -363 -229 -138 -46 -284 -77 -290 -61 -3
7 -3 57 -2 112 l3 99 54 7 c81 12 262 75 332 117 81 47 165 125 234 217 80
106 118 177 195 364 37 91 82 189 99 218 16 28 40 75 52 102 12 28 26 47 30
43 5 -5 14 -52 21 -106z m-2559 -292 c4 -25 10 -255 13 -511 l7 -465 66 -36
c36 -20 77 -44 91 -53 14 -10 86 -48 160 -85 74 -38 173 -91 220 -118 47 -28
159 -94 250 -147 223 -131 400 -230 489 -275 41 -20 120 -63 175 -95 56 -31
151 -83 211 -115 61 -32 121 -65 135 -75 40 -27 280 -157 342 -185 85 -39 159
-52 205 -36 75 26 240 106 348 169 61 36 256 140 435 232 299 154 414 218 935
522 99 58 230 133 290 167 61 34 139 79 175 100 l65 37 5 496 c3 273 7 498 10
501 3 2 26 8 53 11 l47 7 0 -537 0 -537 -39 -36 c-39 -36 -125 -87 -501 -298
-113 -63 -252 -143 -310 -178 -58 -34 -150 -86 -205 -115 -55 -29 -120 -65
-145 -80 -25 -15 -142 -78 -260 -140 -118 -63 -271 -145 -340 -183 -121 -68
-430 -236 -519 -283 -60 -33 -99 -30 -194 12 -83 36 -519 274 -832 454 -93 54
-225 125 -292 159 -67 33 -177 94 -245 135 -68 40 -226 129 -353 196 -342 183
-351 188 -465 259 -57 37 -110 78 -117 91 -10 19 -13 148 -13 546 0 286 3 524
7 527 3 4 25 7 48 7 l42 0 6 -45z m717 8 c1 -53 30 -166 60 -232 40 -87 153
-236 216 -284 74 -57 182 -105 299 -132 58 -14 114 -25 126 -25 21 0 21 -3 17
-104 -2 -58 -6 -108 -10 -112 -12 -12 -207 34 -294 70 -106 43 -249 134 -331
210 -138 128 -255 358 -281 554 -11 78 -7 81 111 82 l87 0 0 -27z m3396 10
c-3 -10 -8 -40 -11 -68 -23 -186 -130 -393 -291 -564 l-72 -76 -22 38 c-26 44
-37 50 -15 7 8 -16 15 -35 15 -43 0 -35 -284 -162 -420 -188 -36 -6 -71 -16
-77 -22 -10 -7 -13 16 -13 112 l0 121 38 0 c106 0 297 80 399 168 125 108 227
286 261 455 l15 77 99 0 c90 0 99 -2 94 -17z m-1460 -520 c94 -74 235 -134
368 -156 l79 -13 -2 -88 c-1 -48 -5 -94 -8 -102 -3 -9 -19 -14 -42 -14 -139 1
-423 137 -581 278 l-45 40 28 49 c16 26 39 72 53 101 l26 52 42 -58 c24 -32
60 -72 82 -89z m-291 -1470 l-7 -132 -34 -7 c-19 -3 -37 -5 -39 -2 -4 3 -7
569 -5 985 l0 131 43 15 42 14 3 -436 c2 -240 0 -496 -3 -568z m-1580 937
c197 -132 395 -228 525 -255 64 -13 78 -45 20 -45 -52 0 -292 115 -420 200
-30 21 -73 47 -95 58 -40 22 -95 66 -95 77 0 7 10 2 65 -35z m3016 -66 c-12
-9 -29 -24 -39 -33 -45 -46 -112 -77 -112 -52 0 9 15 19 120 83 46 28 71 30
31 2z m-1740 -43 c23 -23 29 -38 29 -71 0 -33 -6 -48 -29 -71 -35 -35 -66 -37
-98 -7 -38 36 -30 101 20 156 27 29 43 28 78 -7z m665 -15 c19 -19 34 -42 34
-51 0 -26 -64 -85 -93 -85 -33 0 -67 43 -67 85 0 42 34 85 67 85 15 0 38 -13
59 -34z m-1963 -39 c23 -18 97 -65 164 -105 66 -39 141 -88 164 -107 88 -71
107 -81 159 -89 25 -4 72 -20 105 -35 64 -31 236 -108 298 -135 54 -23 185
-56 224 -56 18 0 48 -8 68 -17 32 -15 35 -20 29 -48 -8 -37 -3 -31 -47 -50
-37 -15 -37 -15 -47 12 -18 51 -26 57 -91 70 -112 24 -149 35 -143 45 4 6 -3
8 -17 4 -13 -3 -18 -3 -11 0 25 12 11 23 -25 18 -21 -2 -32 -2 -25 2 23 11 12
23 -17 18 -24 -5 -68 12 -225 90 -107 53 -227 118 -268 144 -40 26 -104 65
-143 86 -100 55 -225 128 -225 132 0 5 37 -10 95 -39 105 -52 128 -43 32 12
-50 29 -117 81 -104 81 4 0 26 -15 50 -33z m826 -56 c48 -48 59 -92 38 -144
-18 -43 -53 -67 -105 -74 -31 -4 -44 0 -69 21 -63 53 -67 127 -12 191 28 31
46 40 92 44 9 0 35 -17 56 -38z m1620 3 c102 -85 1 -272 -112 -207 -17 11 -43
38 -56 62 -29 53 -23 95 20 139 42 42 102 45 148 6z m331 1 c-50 -27 -193 -85
-210 -85 -5 0 -10 8 -10 18 0 14 20 25 83 45 45 16 98 30 116 32 19 2 36 7 39
10 3 3 10 5 16 5 6 -1 -9 -12 -34 -25z m-500 -211 c0 -44 -321 -139 -495 -146
-80 -3 -80 -3 -83 23 l-3 26 108 7 c59 3 144 15 188 25 98 24 257 70 264 76
10 10 21 4 21 -11z m-1354 -3 c5 -6 41 -17 79 -25 39 -8 102 -22 140 -30 39
-9 118 -19 178 -22 l107 -7 0 -34 c0 -28 -4 -33 -23 -33 -39 0 -307 50 -356
67 -62 20 -139 62 -145 79 -6 16 5 19 20 5z m1773 -45 c-18 -18 -125 -83 -214
-130 -128 -69 -207 -100 -322 -126 -46 -11 -105 -29 -130 -41 -31 -14 -56 -19
-82 -15 -20 4 -81 2 -136 -3 -55 -5 -101 -8 -101 -7 -1 0 -5 16 -9 34 l-7 32
99 0 c61 0 120 6 152 16 29 8 65 14 79 13 15 -1 39 3 53 9 15 6 67 23 115 38
112 34 375 132 392 146 6 6 12 8 12 4 0 -3 21 3 48 14 49 20 58 23 51 16z
m-1341 -256 c74 0 82 -2 82 -19 0 -47 -8 -52 -79 -46 -128 11 -131 12 -131 47
0 27 3 30 23 24 12 -3 59 -6 105 -6z"/>
<path d="M4178 6223 c7 -3 16 -2 19 1 4 3 -2 6 -13 5 -11 0 -14 -3 -6 -6z"/>
<path d="M4203 3420 c-125 -25 -213 -114 -233 -236 -31 -181 105 -346 284
-347 70 0 117 17 187 68 84 63 130 190 103 292 -41 158 -187 253 -341 223z"/>
<path d="M6239 3417 c-187 -53 -275 -232 -199 -404 67 -151 245 -221 390 -152
143 68 213 224 165 368 -21 64 -100 153 -156 175 -56 23 -145 28 -200 13z"/>
<path d="M1930 3126 l0 -294 65 4 c36 2 93 6 128 8 143 8 243 104 271 259 9
49 -16 137 -55 194 -55 79 -130 108 -306 117 l-103 5 0 -293z"/>
<path d="M7174 3405 c-1 -5 -4 -75 -7 -154 l-3 -144 129 7 c181 9 230 33 257
127 15 50 -4 103 -47 136 -35 27 -42 28 -181 33 -92 3 -146 1 -148 -5z"/>
<path d="M2687 2221 c-3 -27 -3 -89 0 -138 l6 -90 51 5 c28 2 62 9 76 16 39
18 70 73 70 123 0 89 -49 133 -148 133 l-49 0 -6 -49z"/>
<path d="M4943 2250 c-85 -52 -82 -177 7 -237 39 -27 79 -29 126 -7 93 44 110
173 33 239 -39 32 -118 35 -166 5z"/>
<path d="M5444 2258 c-3 -4 -2 -35 2 -68 l7 -60 53 0 c43 0 56 4 68 22 19 27
21 68 4 90 -14 17 -126 30 -134 16z"/>
</g>
</svg>
